<svg xmlns="http://www.w3.org/2000/svg" xmlns:xlink="http://www.w3.org/1999/xlink" width="500" zoomAndPan="magnify" viewBox="0 0 375 374.999991" height="500" preserveAspectRatio="xMidYMid meet" version="1.0"><defs><g/><clipPath id="89c1aa0a9c"><path d="M 64.300781 162.078125 L 310.699219 162.078125 L 310.699219 196.953125 L 64.300781 196.953125 Z M 64.300781 162.078125 " clip-rule="nonzero"/></clipPath><clipPath id="4115bf0dd5"><path d="M 0.300781 0.078125 L 246.699219 0.078125 L 246.699219 34.953125 L 0.300781 34.953125 Z M 0.300781 0.078125 " clip-rule="nonzero"/></clipPath><clipPath id="f08d8efa02"><rect x="0" width="247" y="0" height="35"/></clipPath></defs><rect x="-37.5" width="450" fill="#ffffff" y="-37.499999" height="449.999989" fill-opacity="1"/><rect x="-37.5" width="450" fill="#000000" y="-37.499999" height="449.999989" fill-opacity="1"/><g fill="#ffffff" fill-opacity="1"><g transform="translate(160.81202, 258.974177)"><g><path d="M 8.0625 -1.296875 C 13.425781 -2.148438 16.832031 -5.554688 18.28125 -11.515625 C 19.738281 -17.484375 20.46875 -25.945312 20.46875 -36.90625 C 20.46875 -51.519531 20.46875 -66.078125 20.46875 -80.578125 C 20.46875 -95.078125 20.46875 -109.632812 20.46875 -124.25 C 20.46875 -135.207031 19.738281 -143.691406 18.28125 -149.703125 C 16.832031 -155.722656 13.425781 -159.109375 8.0625 -159.859375 L 8.0625 -161.15625 L 38.03125 -161.15625 L 85.40625 -46.578125 L 126.1875 -161.15625 L 158.25 -161.15625 L 158.25 -159.859375 C 152.882812 -159.109375 149.472656 -155.722656 148.015625 -149.703125 C 146.566406 -143.691406 145.84375 -135.207031 145.84375 -124.25 C 145.84375 -109.632812 145.84375 -95.078125 145.84375 -80.578125 C 145.84375 -66.078125 145.84375 -51.519531 145.84375 -36.90625 C 145.84375 -25.945312 146.566406 -17.484375 148.015625 -11.515625 C 149.472656 -5.554688 152.882812 -2.148438 158.25 -1.296875 L 158.25 0 L 113.78125 0 L 113.78125 -1.296875 C 119.144531 -2.148438 122.550781 -5.554688 124 -11.515625 C 125.457031 -17.484375 126.1875 -25.945312 126.1875 -36.90625 C 126.1875 -55.28125 126.1875 -73.625 126.1875 -91.9375 C 126.1875 -110.257812 126.1875 -128.601562 126.1875 -146.96875 L 78.96875 -16.109375 L 77.671875 -16.109375 L 26.265625 -140.359375 C 26.265625 -134.242188 26.238281 -129.222656 26.1875 -125.296875 C 26.132812 -121.378906 26.082031 -118.15625 26.03125 -115.625 C 25.976562 -113.101562 25.921875 -110.820312 25.859375 -108.78125 C 25.804688 -106.738281 25.753906 -104.585938 25.703125 -102.328125 C 25.648438 -100.078125 25.597656 -97.234375 25.546875 -93.796875 C 25.492188 -90.359375 25.46875 -85.953125 25.46875 -80.578125 C 25.46875 -75.203125 25.46875 -71.195312 25.46875 -68.5625 C 25.46875 -65.9375 25.46875 -64.085938 25.46875 -63.015625 C 25.46875 -61.941406 25.492188 -61.082031 25.546875 -60.4375 C 25.597656 -59.789062 25.625 -58.796875 25.625 -57.453125 C 25.625 -56.109375 25.625 -53.878906 25.625 -50.765625 C 25.625 -47.648438 25.625 -43.03125 25.625 -36.90625 C 25.625 -25.945312 26.347656 -17.484375 27.796875 -11.515625 C 29.242188 -5.554688 32.65625 -2.148438 38.03125 -1.296875 L 38.03125 0 L 8.0625 0 Z M 8.0625 -1.296875 "/></g></g></g><g fill="#ffffff" fill-opacity="1"><g transform="translate(55.404136, 258.974177)"><g><path d="M 8.0625 0 L 8.0625 -1.296875 C 13.425781 -2.148438 16.832031 -5.554688 18.28125 -11.515625 C 19.738281 -17.484375 20.46875 -25.945312 20.46875 -36.90625 C 20.46875 -51.519531 20.46875 -66.078125 20.46875 -80.578125 C 20.46875 -95.078125 20.46875 -109.632812 20.46875 -124.25 C 20.46875 -135.207031 19.738281 -143.691406 18.28125 -149.703125 C 16.832031 -155.722656 13.425781 -159.109375 8.0625 -159.859375 L 8.0625 -161.15625 L 49.3125 -161.15625 C 61.457031 -161.15625 72.015625 -159.460938 80.984375 -156.078125 C 89.953125 -152.691406 97.523438 -148.175781 103.703125 -142.53125 C 109.878906 -136.894531 114.847656 -130.554688 118.609375 -123.515625 C 122.367188 -116.484375 125.109375 -109.257812 126.828125 -101.84375 C 128.546875 -94.4375 129.40625 -87.347656 129.40625 -80.578125 C 129.40625 -73.378906 128.546875 -66.019531 126.828125 -58.5 C 125.109375 -50.976562 122.367188 -43.722656 118.609375 -36.734375 C 114.847656 -29.753906 109.878906 -23.5 103.703125 -17.96875 C 97.523438 -12.4375 89.953125 -8.054688 80.984375 -4.828125 C 72.015625 -1.609375 61.457031 0 49.3125 0 Z M 44.3125 -156.484375 C 43.664062 -156.484375 42.992188 -156.484375 42.296875 -156.484375 C 41.597656 -156.484375 40.875 -156.484375 40.125 -156.484375 L 40.125 -92.828125 C 40.125 -81.765625 40.125 -70.722656 40.125 -59.703125 C 40.125 -48.691406 40.097656 -38.429688 40.046875 -28.921875 C 39.992188 -19.421875 39.96875 -11.335938 39.96875 -4.671875 C 40.71875 -4.671875 41.441406 -4.671875 42.140625 -4.671875 C 42.835938 -4.671875 43.5625 -4.671875 44.3125 -4.671875 C 54.625 -4.671875 63.488281 -6.335938 70.90625 -9.671875 C 78.320312 -13.003906 84.523438 -17.4375 89.515625 -22.96875 C 94.515625 -28.5 98.460938 -34.617188 101.359375 -41.328125 C 104.265625 -48.046875 106.332031 -54.816406 107.5625 -61.640625 C 108.800781 -68.460938 109.421875 -74.773438 109.421875 -80.578125 C 109.421875 -86.378906 108.800781 -92.691406 107.5625 -99.515625 C 106.332031 -106.335938 104.265625 -113.101562 101.359375 -119.8125 C 98.460938 -126.53125 94.515625 -132.65625 89.515625 -138.1875 C 84.523438 -143.71875 78.320312 -148.148438 70.90625 -151.484375 C 63.488281 -154.816406 54.625 -156.484375 44.3125 -156.484375 Z M 44.3125 -156.484375 "/></g></g></g><g clip-path="url(#89c1aa0a9c)"><g transform="matrix(1, 0, 0, 1, 64, 162)"><g clip-path="url(#f08d8efa02)"><g clip-path="url(#4115bf0dd5)"><path fill="#000000" d="M 0.300781 0.078125 L 246.742188 0.078125 L 246.742188 34.953125 L 0.300781 34.953125 Z M 0.300781 0.078125 " fill-opacity="1" fill-rule="nonzero"/></g></g></g></g><g fill="#ffffff" fill-opacity="1"><g transform="translate(94.096791, 195.605705)"><g><path d="M 8.1875 -13.734375 L 7.421875 -4.15625 C 7.359375 -3.445312 7.203125 -2.851562 6.953125 -2.375 C 7.148438 -2.332031 7.378906 -2.300781 7.640625 -2.28125 C 7.898438 -2.257812 8.179688 -2.265625 8.484375 -2.296875 C 9.804688 -2.421875 10.914062 -2.875 11.8125 -3.65625 C 12.707031 -4.445312 13.351562 -5.492188 13.75 -6.796875 C 14.144531 -8.097656 14.265625 -9.570312 14.109375 -11.21875 C 13.960938 -12.75 13.539062 -14.03125 12.84375 -15.0625 C 12.144531 -16.101562 11.207031 -16.863281 10.03125 -17.34375 C 8.863281 -17.832031 7.5 -18 5.9375 -17.84375 C 4.71875 -17.726562 3.757812 -17.472656 3.0625 -17.078125 C 2.363281 -16.679688 1.867188 -16.222656 1.578125 -15.703125 C 1.285156 -15.191406 1.164062 -14.695312 1.21875 -14.21875 C 1.25 -13.875 1.363281 -13.601562 1.5625 -13.40625 C 1.757812 -13.21875 2.015625 -13.140625 2.328125 -13.171875 C 2.453125 -13.179688 2.550781 -13.203125 2.625 -13.234375 C 2.695312 -13.273438 2.734375 -13.296875 2.734375 -13.296875 C 2.734375 -13.296875 2.738281 -13.28125 2.75 -13.25 C 2.757812 -13.21875 2.765625 -13.160156 2.765625 -13.078125 C 2.796875 -12.785156 2.671875 -12.46875 2.390625 -12.125 C 2.109375 -11.78125 1.65625 -11.582031 1.03125 -11.53125 C 0.226562 -11.445312 -0.421875 -11.609375 -0.921875 -12.015625 C -1.429688 -12.421875 -1.722656 -13 -1.796875 -13.75 C -1.878906 -14.570312 -1.65625 -15.367188 -1.125 -16.140625 C -0.601562 -16.910156 0.222656 -17.570312 1.359375 -18.125 C 2.492188 -18.675781 3.9375 -19.035156 5.6875 -19.203125 C 7.957031 -19.410156 9.953125 -19.203125 11.671875 -18.578125 C 13.390625 -17.960938 14.757812 -17.019531 15.78125 -15.75 C 16.800781 -14.488281 17.394531 -12.957031 17.5625 -11.15625 C 17.75 -9.195312 17.519531 -7.472656 16.875 -5.984375 C 16.238281 -4.492188 15.28125 -3.3125 14 -2.4375 C 12.71875 -1.570312 11.191406 -1.054688 9.421875 -0.890625 C 8.679688 -0.816406 8.023438 -0.820312 7.453125 -0.90625 C 6.878906 -1 6.390625 -1.109375 5.984375 -1.234375 C 5.640625 -0.953125 5.253906 -0.738281 4.828125 -0.59375 C 4.410156 -0.457031 3.96875 -0.367188 3.5 -0.328125 C 2.769531 -0.265625 2.238281 -0.367188 1.90625 -0.640625 C 1.582031 -0.921875 1.40625 -1.242188 1.375 -1.609375 C 1.34375 -1.992188 1.457031 -2.347656 1.71875 -2.671875 C 1.976562 -2.992188 2.4375 -3.1875 3.09375 -3.25 C 3.375 -3.28125 3.703125 -3.269531 4.078125 -3.21875 L 4.890625 -13.546875 C 4.960938 -14.421875 4.945312 -15.023438 4.84375 -15.359375 C 4.75 -15.703125 4.703125 -15.875 4.703125 -15.875 C 4.703125 -15.875 4.800781 -15.925781 5 -16.03125 C 5.207031 -16.132812 5.566406 -16.207031 6.078125 -16.25 C 6.992188 -16.34375 7.59375 -16.1875 7.875 -15.78125 C 8.15625 -15.382812 8.257812 -14.703125 8.1875 -13.734375 Z M 8.1875 -13.734375 "/></g></g></g><g fill="#ffffff" fill-opacity="1"><g transform="translate(113.532309, 193.775986)"><g><path d="M 9.9375 -11.34375 L 9.4375 -5.25 C 9.375 -4.488281 9.457031 -3.941406 9.6875 -3.609375 C 9.914062 -3.273438 10.253906 -3.128906 10.703125 -3.171875 C 11.128906 -3.210938 11.566406 -3.445312 12.015625 -3.875 C 12.472656 -4.3125 12.832031 -4.875 13.09375 -5.5625 C 13.25 -5.582031 13.378906 -5.546875 13.484375 -5.453125 C 13.585938 -5.359375 13.632812 -5.195312 13.625 -4.96875 C 13.582031 -4.632812 13.457031 -4.25 13.25 -3.8125 C 13.050781 -3.375 12.773438 -2.941406 12.421875 -2.515625 C 12.066406 -2.097656 11.644531 -1.738281 11.15625 -1.4375 C 10.675781 -1.132812 10.140625 -0.957031 9.546875 -0.90625 C 8.742188 -0.820312 8.054688 -1 7.484375 -1.4375 C 6.910156 -1.882812 6.546875 -2.539062 6.390625 -3.40625 C 5.960938 -2.46875 5.445312 -1.726562 4.84375 -1.1875 C 4.25 -0.644531 3.597656 -0.335938 2.890625 -0.265625 C 1.890625 -0.171875 1 -0.4375 0.21875 -1.0625 C -0.550781 -1.6875 -1.007812 -2.726562 -1.15625 -4.1875 C -1.28125 -5.5625 -1.207031 -6.769531 -0.9375 -7.8125 C -0.664062 -8.851562 -0.269531 -9.738281 0.25 -10.46875 C 0.78125 -11.195312 1.390625 -11.757812 2.078125 -12.15625 C 2.765625 -12.550781 3.46875 -12.78125 4.1875 -12.84375 C 4.8125 -12.90625 5.351562 -12.84375 5.8125 -12.65625 C 6.269531 -12.476562 6.65625 -12.21875 6.96875 -11.875 C 7.125 -12.34375 7.363281 -12.679688 7.6875 -12.890625 C 8.007812 -13.109375 8.472656 -13.25 9.078125 -13.3125 C 9.503906 -13.351562 9.816406 -13.335938 10.015625 -13.265625 C 10.222656 -13.203125 10.328125 -13.171875 10.328125 -13.171875 C 10.328125 -13.171875 10.28125 -13.035156 10.1875 -12.765625 C 10.09375 -12.503906 10.007812 -12.03125 9.9375 -11.34375 Z M 3.671875 -2.5 C 4.117188 -2.539062 4.507812 -2.78125 4.84375 -3.21875 C 5.1875 -3.664062 5.472656 -4.222656 5.703125 -4.890625 C 5.941406 -5.554688 6.140625 -6.253906 6.296875 -6.984375 C 6.453125 -7.722656 6.5625 -8.398438 6.625 -9.015625 L 6.734375 -10.1875 C 6.597656 -10.425781 6.390625 -10.664062 6.109375 -10.90625 C 5.835938 -11.15625 5.460938 -11.257812 4.984375 -11.21875 C 4.429688 -11.164062 3.898438 -10.847656 3.390625 -10.265625 C 2.890625 -9.691406 2.503906 -8.90625 2.234375 -7.90625 C 1.960938 -6.914062 1.890625 -5.757812 2.015625 -4.4375 C 2.078125 -3.738281 2.253906 -3.226562 2.546875 -2.90625 C 2.835938 -2.59375 3.210938 -2.457031 3.671875 -2.5 Z M 3.671875 -2.5 "/></g></g></g><g fill="#ffffff" fill-opacity="1"><g transform="translate(127.270357, 192.482644)"><g><path d="M 16.8125 -3.75 C 17.3125 -3.789062 17.773438 -4.023438 18.203125 -4.453125 C 18.628906 -4.890625 18.960938 -5.453125 19.203125 -6.140625 C 19.367188 -6.160156 19.5 -6.125 19.59375 -6.03125 C 19.695312 -5.9375 19.742188 -5.773438 19.734375 -5.546875 C 19.710938 -5.234375 19.597656 -4.851562 19.390625 -4.40625 C 19.191406 -3.96875 18.914062 -3.535156 18.5625 -3.109375 C 18.207031 -2.679688 17.789062 -2.316406 17.3125 -2.015625 C 16.832031 -1.710938 16.3125 -1.535156 15.75 -1.484375 C 14.820312 -1.398438 14.0625 -1.613281 13.46875 -2.125 C 12.882812 -2.644531 12.546875 -3.363281 12.453125 -4.28125 C 12.421875 -4.613281 12.421875 -5.0625 12.453125 -5.625 C 12.492188 -6.195312 12.53125 -6.695312 12.5625 -7.125 L 12.78125 -9.90625 C 12.820312 -10.476562 12.78125 -10.875 12.65625 -11.09375 C 12.53125 -11.3125 12.328125 -11.40625 12.046875 -11.375 C 11.734375 -11.351562 11.410156 -11.117188 11.078125 -10.671875 C 10.742188 -10.222656 10.425781 -9.617188 10.125 -8.859375 C 9.820312 -8.109375 9.554688 -7.242188 9.328125 -6.265625 C 9.109375 -5.296875 8.953125 -4.273438 8.859375 -3.203125 C 8.796875 -2.421875 8.804688 -1.867188 8.890625 -1.546875 C 8.984375 -1.234375 9.03125 -1.078125 9.03125 -1.078125 C 9.03125 -1.078125 8.9375 -1.03125 8.75 -0.9375 C 8.5625 -0.84375 8.238281 -0.773438 7.78125 -0.734375 C 6.820312 -0.640625 6.21875 -0.773438 5.96875 -1.140625 C 5.726562 -1.515625 5.640625 -2.132812 5.703125 -3 L 6.21875 -9.28125 C 6.320312 -10.320312 6.085938 -10.816406 5.515625 -10.765625 C 5.109375 -10.722656 4.679688 -10.347656 4.234375 -9.640625 C 3.785156 -8.929688 3.382812 -7.96875 3.03125 -6.75 C 2.675781 -5.53125 2.429688 -4.140625 2.296875 -2.578125 C 2.234375 -1.796875 2.242188 -1.242188 2.328125 -0.921875 C 2.421875 -0.609375 2.46875 -0.453125 2.46875 -0.453125 C 2.46875 -0.453125 2.367188 -0.40625 2.171875 -0.3125 C 1.984375 -0.21875 1.664062 -0.148438 1.21875 -0.109375 C 0.257812 -0.0234375 -0.335938 -0.164062 -0.578125 -0.53125 C -0.828125 -0.90625 -0.921875 -1.519531 -0.859375 -2.375 L -0.25 -10.046875 C -0.1875 -10.835938 -0.195312 -11.390625 -0.28125 -11.703125 C -0.375 -12.023438 -0.421875 -12.1875 -0.421875 -12.1875 C -0.421875 -12.1875 -0.320312 -12.234375 -0.125 -12.328125 C 0.0625 -12.421875 0.378906 -12.488281 0.828125 -12.53125 C 1.785156 -12.625 2.382812 -12.488281 2.625 -12.125 C 2.875 -11.757812 2.960938 -11.132812 2.890625 -10.25 L 2.84375 -9.640625 C 3.082031 -10.128906 3.378906 -10.625 3.734375 -11.125 C 4.085938 -11.625 4.503906 -12.054688 4.984375 -12.421875 C 5.460938 -12.796875 5.984375 -13.007812 6.546875 -13.0625 C 7.304688 -13.132812 7.941406 -12.96875 8.453125 -12.5625 C 8.972656 -12.15625 9.269531 -11.546875 9.34375 -10.734375 C 9.351562 -10.648438 9.351562 -10.5625 9.34375 -10.46875 C 9.34375 -10.382812 9.347656 -10.289062 9.359375 -10.1875 C 9.585938 -10.6875 9.882812 -11.195312 10.25 -11.71875 C 10.613281 -12.238281 11.039062 -12.679688 11.53125 -13.046875 C 12.019531 -13.421875 12.550781 -13.632812 13.125 -13.6875 C 13.90625 -13.757812 14.546875 -13.582031 15.046875 -13.15625 C 15.546875 -12.738281 15.832031 -12.144531 15.90625 -11.375 C 15.925781 -11.101562 15.929688 -10.796875 15.921875 -10.453125 C 15.921875 -10.117188 15.898438 -9.753906 15.859375 -9.359375 L 15.59375 -5.828125 C 15.5 -4.347656 15.90625 -3.65625 16.8125 -3.75 Z M 16.8125 -3.75 "/></g></g></g><g fill="#ffffff" fill-opacity="1"><g transform="translate(147.125164, 190.613451)"><g><path d="M 9.9375 -11.34375 L 9.4375 -5.25 C 9.375 -4.488281 9.457031 -3.941406 9.6875 -3.609375 C 9.914062 -3.273438 10.253906 -3.128906 10.703125 -3.171875 C 11.128906 -3.210938 11.566406 -3.445312 12.015625 -3.875 C 12.472656 -4.3125 12.832031 -4.875 13.09375 -5.5625 C 13.25 -5.582031 13.378906 -5.546875 13.484375 -5.453125 C 13.585938 -5.359375 13.632812 -5.195312 13.625 -4.96875 C 13.582031 -4.632812 13.457031 -4.25 13.25 -3.8125 C 13.050781 -3.375 12.773438 -2.941406 12.421875 -2.515625 C 12.066406 -2.097656 11.644531 -1.738281 11.15625 -1.4375 C 10.675781 -1.132812 10.140625 -0.957031 9.546875 -0.90625 C 8.742188 -0.820312 8.054688 -1 7.484375 -1.4375 C 6.910156 -1.882812 6.546875 -2.539062 6.390625 -3.40625 C 5.960938 -2.46875 5.445312 -1.726562 4.84375 -1.1875 C 4.25 -0.644531 3.597656 -0.335938 2.890625 -0.265625 C 1.890625 -0.171875 1 -0.4375 0.21875 -1.0625 C -0.550781 -1.6875 -1.007812 -2.726562 -1.15625 -4.1875 C -1.28125 -5.5625 -1.207031 -6.769531 -0.9375 -7.8125 C -0.664062 -8.851562 -0.269531 -9.738281 0.25 -10.46875 C 0.78125 -11.195312 1.390625 -11.757812 2.078125 -12.15625 C 2.765625 -12.550781 3.46875 -12.78125 4.1875 -12.84375 C 4.8125 -12.90625 5.351562 -12.84375 5.8125 -12.65625 C 6.269531 -12.476562 6.65625 -12.21875 6.96875 -11.875 C 7.125 -12.34375 7.363281 -12.679688 7.6875 -12.890625 C 8.007812 -13.109375 8.472656 -13.25 9.078125 -13.3125 C 9.503906 -13.351562 9.816406 -13.335938 10.015625 -13.265625 C 10.222656 -13.203125 10.328125 -13.171875 10.328125 -13.171875 C 10.328125 -13.171875 10.28125 -13.035156 10.1875 -12.765625 C 10.09375 -12.503906 10.007812 -12.03125 9.9375 -11.34375 Z M 3.671875 -2.5 C 4.117188 -2.539062 4.507812 -2.78125 4.84375 -3.21875 C 5.1875 -3.664062 5.472656 -4.222656 5.703125 -4.890625 C 5.941406 -5.554688 6.140625 -6.253906 6.296875 -6.984375 C 6.453125 -7.722656 6.5625 -8.398438 6.625 -9.015625 L 6.734375 -10.1875 C 6.597656 -10.425781 6.390625 -10.664062 6.109375 -10.90625 C 5.835938 -11.15625 5.460938 -11.257812 4.984375 -11.21875 C 4.429688 -11.164062 3.898438 -10.847656 3.390625 -10.265625 C 2.890625 -9.691406 2.503906 -8.90625 2.234375 -7.90625 C 1.960938 -6.914062 1.890625 -5.757812 2.015625 -4.4375 C 2.078125 -3.738281 2.253906 -3.226562 2.546875 -2.90625 C 2.835938 -2.59375 3.210938 -2.457031 3.671875 -2.5 Z M 3.671875 -2.5 "/></g></g></g><g fill="#ffffff" fill-opacity="1"><g transform="translate(160.863211, 189.320109)"><g><path d="M 3.171875 -8.375 L 5.40625 -7.4375 C 6.351562 -7.070312 7.03125 -6.644531 7.4375 -6.15625 C 7.851562 -5.664062 8.09375 -5.085938 8.15625 -4.421875 C 8.21875 -3.773438 8.082031 -3.160156 7.75 -2.578125 C 7.425781 -1.992188 6.894531 -1.492188 6.15625 -1.078125 C 5.425781 -0.671875 4.457031 -0.414062 3.25 -0.3125 C 2.207031 -0.207031 1.335938 -0.273438 0.640625 -0.515625 C -0.046875 -0.765625 -0.566406 -1.097656 -0.921875 -1.515625 C -1.273438 -1.941406 -1.472656 -2.367188 -1.515625 -2.796875 C -1.554688 -3.273438 -1.421875 -3.65625 -1.109375 -3.9375 C -0.804688 -4.226562 -0.441406 -4.390625 -0.015625 -4.421875 C 0.421875 -4.460938 0.734375 -4.4375 0.921875 -4.34375 C 1.117188 -4.25 1.21875 -4.203125 1.21875 -4.203125 C 1.21875 -4.203125 1.203125 -4.132812 1.171875 -4 C 1.140625 -3.875 1.132812 -3.695312 1.15625 -3.46875 C 1.207031 -2.851562 1.410156 -2.367188 1.765625 -2.015625 C 2.128906 -1.671875 2.671875 -1.519531 3.390625 -1.5625 C 4.097656 -1.625 4.601562 -1.828125 4.90625 -2.171875 C 5.207031 -2.523438 5.335938 -2.90625 5.296875 -3.3125 C 5.273438 -3.613281 5.164062 -3.878906 4.96875 -4.109375 C 4.769531 -4.347656 4.4375 -4.5625 3.96875 -4.75 L 1.40625 -5.8125 C 0.789062 -6.070312 0.253906 -6.410156 -0.203125 -6.828125 C -0.671875 -7.253906 -0.941406 -7.878906 -1.015625 -8.703125 C -1.117188 -9.703125 -0.769531 -10.597656 0.03125 -11.390625 C 0.84375 -12.179688 2.128906 -12.65625 3.890625 -12.8125 C 4.898438 -12.914062 5.75 -12.84375 6.4375 -12.59375 C 7.132812 -12.351562 7.660156 -12.019531 8.015625 -11.59375 C 8.378906 -11.164062 8.582031 -10.738281 8.625 -10.3125 C 8.664062 -9.851562 8.535156 -9.476562 8.234375 -9.1875 C 7.941406 -8.894531 7.582031 -8.734375 7.15625 -8.703125 C 6.738281 -8.660156 6.425781 -8.6875 6.21875 -8.78125 C 6.019531 -8.875 5.921875 -8.921875 5.921875 -8.921875 C 5.921875 -8.921875 5.9375 -8.988281 5.96875 -9.125 C 6 -9.257812 6.003906 -9.429688 5.984375 -9.640625 C 5.929688 -10.210938 5.707031 -10.691406 5.3125 -11.078125 C 4.914062 -11.460938 4.378906 -11.625 3.703125 -11.5625 C 3.015625 -11.488281 2.515625 -11.28125 2.203125 -10.9375 C 1.898438 -10.601562 1.765625 -10.222656 1.796875 -9.796875 C 1.835938 -9.429688 1.96875 -9.144531 2.1875 -8.9375 C 2.414062 -8.726562 2.742188 -8.539062 3.171875 -8.375 Z M 3.171875 -8.375 "/></g></g></g><g fill="#ffffff" fill-opacity="1"><g transform="translate(172.11016, 188.261287)"><g><path d="M 4.84375 -0.453125 C 3.75 -0.347656 2.757812 -0.46875 1.875 -0.8125 C 1 -1.164062 0.285156 -1.71875 -0.265625 -2.46875 C -0.816406 -3.21875 -1.140625 -4.117188 -1.234375 -5.171875 C -1.335938 -6.234375 -1.25 -7.210938 -0.96875 -8.109375 C -0.6875 -9.015625 -0.269531 -9.8125 0.28125 -10.5 C 0.84375 -11.1875 1.503906 -11.734375 2.265625 -12.140625 C 3.023438 -12.554688 3.820312 -12.804688 4.65625 -12.890625 C 5.6875 -12.984375 6.546875 -12.796875 7.234375 -12.328125 C 7.929688 -11.859375 8.316406 -11.222656 8.390625 -10.421875 C 8.460938 -9.679688 8.328125 -9.050781 7.984375 -8.53125 C 7.648438 -8.007812 7.164062 -7.71875 6.53125 -7.65625 C 6.082031 -7.613281 5.757812 -7.679688 5.5625 -7.859375 C 5.363281 -8.046875 5.265625 -8.140625 5.265625 -8.140625 C 5.265625 -8.140625 5.335938 -8.234375 5.484375 -8.421875 C 5.628906 -8.609375 5.757812 -8.882812 5.875 -9.25 C 5.988281 -9.613281 6.019531 -10.070312 5.96875 -10.625 C 5.9375 -10.96875 5.800781 -11.234375 5.5625 -11.421875 C 5.332031 -11.609375 5.050781 -11.6875 4.71875 -11.65625 C 4.21875 -11.601562 3.734375 -11.328125 3.265625 -10.828125 C 2.796875 -10.335938 2.429688 -9.675781 2.171875 -8.84375 C 1.910156 -8.007812 1.832031 -7.046875 1.9375 -5.953125 C 2.039062 -4.804688 2.441406 -3.914062 3.140625 -3.28125 C 3.835938 -2.65625 4.757812 -2.398438 5.90625 -2.515625 C 6.75 -2.585938 7.46875 -2.773438 8.0625 -3.078125 C 8.65625 -3.390625 9.144531 -3.75 9.53125 -4.15625 C 9.925781 -4.5625 10.21875 -4.945312 10.40625 -5.3125 C 10.769531 -5.34375 10.921875 -5.140625 10.859375 -4.703125 C 10.816406 -4.429688 10.65625 -4.070312 10.375 -3.625 C 10.101562 -3.1875 9.71875 -2.738281 9.21875 -2.28125 C 8.71875 -1.832031 8.097656 -1.4375 7.359375 -1.09375 C 6.628906 -0.757812 5.789062 -0.546875 4.84375 -0.453125 Z M 4.84375 -0.453125 "/></g></g></g><g fill="#ffffff" fill-opacity="1"><g transform="translate(183.233784, 187.214075)"><g><path d="M 6.46875 -3.71875 C 6.457031 -3.832031 6.445312 -3.957031 6.4375 -4.09375 C 6.425781 -4.238281 6.414062 -4.394531 6.40625 -4.5625 C 6.113281 -3.820312 5.800781 -3.175781 5.46875 -2.625 C 5.039062 -1.882812 4.554688 -1.3125 4.015625 -0.90625 C 3.472656 -0.5 2.863281 -0.265625 2.1875 -0.203125 C 1.375 -0.128906 0.695312 -0.332031 0.15625 -0.8125 C -0.382812 -1.300781 -0.691406 -1.96875 -0.765625 -2.8125 C -0.804688 -3.269531 -0.828125 -3.734375 -0.828125 -4.203125 C -0.835938 -4.671875 -0.816406 -5.226562 -0.765625 -5.875 L -0.421875 -10.03125 C -0.359375 -10.820312 -0.367188 -11.375 -0.453125 -11.6875 C -0.546875 -12.007812 -0.59375 -12.171875 -0.59375 -12.171875 C -0.59375 -12.171875 -0.492188 -12.21875 -0.296875 -12.3125 C -0.109375 -12.40625 0.207031 -12.472656 0.65625 -12.515625 C 1.613281 -12.609375 2.210938 -12.472656 2.453125 -12.109375 C 2.703125 -11.742188 2.789062 -11.117188 2.71875 -10.234375 L 2.265625 -4.453125 C 2.210938 -3.722656 2.273438 -3.203125 2.453125 -2.890625 C 2.640625 -2.578125 2.914062 -2.4375 3.28125 -2.46875 C 3.5625 -2.5 3.84375 -2.679688 4.125 -3.015625 C 4.414062 -3.347656 4.6875 -3.773438 4.9375 -4.296875 C 5.25 -4.878906 5.535156 -5.546875 5.796875 -6.296875 C 6.054688 -7.046875 6.28125 -7.828125 6.46875 -8.640625 C 6.664062 -9.453125 6.785156 -10.226562 6.828125 -10.96875 C 6.878906 -11.65625 6.863281 -12.140625 6.78125 -12.421875 C 6.695312 -12.710938 6.65625 -12.859375 6.65625 -12.859375 C 6.65625 -12.859375 6.75 -12.90625 6.9375 -13 C 7.132812 -13.09375 7.460938 -13.160156 7.921875 -13.203125 C 8.878906 -13.285156 9.476562 -13.144531 9.71875 -12.78125 C 9.957031 -12.425781 10.039062 -11.804688 9.96875 -10.921875 L 9.53125 -5.265625 C 9.488281 -4.503906 9.578125 -3.953125 9.796875 -3.609375 C 10.023438 -3.273438 10.359375 -3.128906 10.796875 -3.171875 C 11.234375 -3.210938 11.675781 -3.453125 12.125 -3.890625 C 12.582031 -4.328125 12.9375 -4.890625 13.1875 -5.578125 C 13.351562 -5.585938 13.484375 -5.546875 13.578125 -5.453125 C 13.679688 -5.367188 13.726562 -5.210938 13.71875 -4.984375 C 13.6875 -4.640625 13.566406 -4.25 13.359375 -3.8125 C 13.160156 -3.382812 12.882812 -2.957031 12.53125 -2.53125 C 12.175781 -2.113281 11.753906 -1.75 11.265625 -1.4375 C 10.773438 -1.132812 10.234375 -0.957031 9.640625 -0.90625 C 8.796875 -0.820312 8.078125 -1.023438 7.484375 -1.515625 C 6.898438 -2.003906 6.5625 -2.738281 6.46875 -3.71875 Z M 6.46875 -3.71875 "/></g></g></g><g fill="#ffffff" fill-opacity="1"><g transform="translate(197.070489, 185.911445)"><g><path d="M 3.171875 -8.375 L 5.40625 -7.4375 C 6.351562 -7.070312 7.03125 -6.644531 7.4375 -6.15625 C 7.851562 -5.664062 8.09375 -5.085938 8.15625 -4.421875 C 8.21875 -3.773438 8.082031 -3.160156 7.75 -2.578125 C 7.425781 -1.992188 6.894531 -1.492188 6.15625 -1.078125 C 5.425781 -0.671875 4.457031 -0.414062 3.25 -0.3125 C 2.207031 -0.207031 1.335938 -0.273438 0.640625 -0.515625 C -0.046875 -0.765625 -0.566406 -1.097656 -0.921875 -1.515625 C -1.273438 -1.941406 -1.472656 -2.367188 -1.515625 -2.796875 C -1.554688 -3.273438 -1.421875 -3.65625 -1.109375 -3.9375 C -0.804688 -4.226562 -0.441406 -4.390625 -0.015625 -4.421875 C 0.421875 -4.460938 0.734375 -4.4375 0.921875 -4.34375 C 1.117188 -4.25 1.21875 -4.203125 1.21875 -4.203125 C 1.21875 -4.203125 1.203125 -4.132812 1.171875 -4 C 1.140625 -3.875 1.132812 -3.695312 1.15625 -3.46875 C 1.207031 -2.851562 1.410156 -2.367188 1.765625 -2.015625 C 2.128906 -1.671875 2.671875 -1.519531 3.390625 -1.5625 C 4.097656 -1.625 4.601562 -1.828125 4.90625 -2.171875 C 5.207031 -2.523438 5.335938 -2.90625 5.296875 -3.3125 C 5.273438 -3.613281 5.164062 -3.878906 4.96875 -4.109375 C 4.769531 -4.347656 4.4375 -4.5625 3.96875 -4.75 L 1.40625 -5.8125 C 0.789062 -6.070312 0.253906 -6.410156 -0.203125 -6.828125 C -0.671875 -7.253906 -0.941406 -7.878906 -1.015625 -8.703125 C -1.117188 -9.703125 -0.769531 -10.597656 0.03125 -11.390625 C 0.84375 -12.179688 2.128906 -12.65625 3.890625 -12.8125 C 4.898438 -12.914062 5.75 -12.84375 6.4375 -12.59375 C 7.132812 -12.351562 7.660156 -12.019531 8.015625 -11.59375 C 8.378906 -11.164062 8.582031 -10.738281 8.625 -10.3125 C 8.664062 -9.851562 8.535156 -9.476562 8.234375 -9.1875 C 7.941406 -8.894531 7.582031 -8.734375 7.15625 -8.703125 C 6.738281 -8.660156 6.425781 -8.6875 6.21875 -8.78125 C 6.019531 -8.875 5.921875 -8.921875 5.921875 -8.921875 C 5.921875 -8.921875 5.9375 -8.988281 5.96875 -9.125 C 6 -9.257812 6.003906 -9.429688 5.984375 -9.640625 C 5.929688 -10.210938 5.707031 -10.691406 5.3125 -11.078125 C 4.914062 -11.460938 4.378906 -11.625 3.703125 -11.5625 C 3.015625 -11.488281 2.515625 -11.28125 2.203125 -10.9375 C 1.898438 -10.601562 1.765625 -10.222656 1.796875 -9.796875 C 1.835938 -9.429688 1.96875 -9.144531 2.1875 -8.9375 C 2.414062 -8.726562 2.742188 -8.539062 3.171875 -8.375 Z M 3.171875 -8.375 "/></g></g></g><g fill="#ffffff" fill-opacity="1"><g transform="translate(208.317438, 184.852622)"><g/></g></g><g fill="#ffffff" fill-opacity="1"><g transform="translate(213.743602, 184.341786)"><g><path d="M 3.421875 -8.90625 L 4.453125 -14.4375 C 4.753906 -16.039062 4.914062 -17.179688 4.9375 -17.859375 C 4.96875 -18.546875 4.984375 -18.890625 4.984375 -18.890625 C 4.984375 -18.890625 5.113281 -18.941406 5.375 -19.046875 C 5.632812 -19.148438 5.972656 -19.222656 6.390625 -19.265625 C 7.140625 -19.335938 7.675781 -19.226562 8 -18.9375 C 8.332031 -18.65625 8.5625 -18.066406 8.6875 -17.171875 L 10.34375 -5.109375 L 14.671875 -16.890625 C 14.992188 -17.742188 15.203125 -18.382812 15.296875 -18.8125 C 15.398438 -19.238281 15.457031 -19.597656 15.46875 -19.890625 C 15.46875 -19.890625 15.570312 -19.9375 15.78125 -20.03125 C 16 -20.125 16.363281 -20.195312 16.875 -20.25 C 17.789062 -20.332031 18.382812 -20.171875 18.65625 -19.765625 C 18.9375 -19.367188 19.039062 -18.695312 18.96875 -17.75 L 18.046875 -5.9375 C 17.992188 -5.207031 18.09375 -4.6875 18.34375 -4.375 C 18.59375 -4.070312 18.921875 -3.941406 19.328125 -3.984375 C 19.742188 -4.015625 20.109375 -4.179688 20.421875 -4.484375 C 20.742188 -4.785156 21.019531 -5.113281 21.25 -5.46875 C 21.476562 -5.832031 21.640625 -6.132812 21.734375 -6.375 C 22.097656 -6.414062 22.273438 -6.21875 22.265625 -5.78125 C 22.234375 -5.28125 22.03125 -4.726562 21.65625 -4.125 C 21.289062 -3.519531 20.800781 -2.984375 20.1875 -2.515625 C 19.582031 -2.046875 18.898438 -1.773438 18.140625 -1.703125 C 17.265625 -1.617188 16.523438 -1.828125 15.921875 -2.328125 C 15.316406 -2.828125 14.972656 -3.546875 14.890625 -4.484375 C 14.828125 -5.054688 14.800781 -5.609375 14.8125 -6.140625 C 14.820312 -6.671875 14.859375 -7.273438 14.921875 -7.953125 L 15.484375 -15.25 L 11.359375 -3.875 C 11.109375 -3.164062 10.941406 -2.570312 10.859375 -2.09375 C 10.785156 -1.625 10.75 -1.390625 10.75 -1.390625 C 10.75 -1.390625 10.617188 -1.3125 10.359375 -1.15625 C 10.097656 -1.007812 9.71875 -0.914062 9.21875 -0.875 C 8.570312 -0.8125 8.117188 -0.992188 7.859375 -1.421875 C 7.597656 -1.859375 7.414062 -2.445312 7.3125 -3.1875 L 5.765625 -14.4375 L 4.1875 -5.15625 C 3.875 -3.363281 3.441406 -2.085938 2.890625 -1.328125 C 2.335938 -0.566406 1.65625 -0.148438 0.84375 -0.078125 C 0.28125 -0.0234375 -0.175781 -0.160156 -0.53125 -0.484375 C -0.894531 -0.804688 -1.101562 -1.242188 -1.15625 -1.796875 C -1.195312 -2.222656 -1.171875 -2.539062 -1.078125 -2.75 C -0.984375 -2.957031 -0.9375 -3.0625 -0.9375 -3.0625 C -0.9375 -3.0625 -0.863281 -3.035156 -0.71875 -2.984375 C -0.570312 -2.941406 -0.351562 -2.929688 -0.0625 -2.953125 C 0.488281 -3.003906 0.96875 -3.195312 1.375 -3.53125 C 1.78125 -3.875 2.148438 -4.46875 2.484375 -5.3125 C 2.816406 -6.15625 3.128906 -7.351562 3.421875 -8.90625 Z M 3.421875 -8.90625 "/></g></g></g><g fill="#ffffff" fill-opacity="1"><g transform="translate(236.114175, 182.235752)"><g><path d="M 8.90625 -7.375 L 8.921875 -7.671875 L 4.640625 -7.265625 L 4.109375 -5.140625 C 3.753906 -3.773438 3.40625 -2.738281 3.0625 -2.03125 C 2.71875 -1.320312 2.359375 -0.828125 1.984375 -0.546875 C 1.617188 -0.273438 1.207031 -0.113281 0.75 -0.0625 C 0.226562 -0.0195312 -0.203125 -0.160156 -0.546875 -0.484375 C -0.898438 -0.804688 -1.101562 -1.242188 -1.15625 -1.796875 C -1.195312 -2.222656 -1.171875 -2.539062 -1.078125 -2.75 C -0.984375 -2.957031 -0.9375 -3.0625 -0.9375 -3.0625 C -0.9375 -3.0625 -0.863281 -3.035156 -0.71875 -2.984375 C -0.570312 -2.941406 -0.351562 -2.929688 -0.0625 -2.953125 C 0.488281 -3.003906 1.023438 -3.320312 1.546875 -3.90625 C 2.078125 -4.488281 2.578125 -5.535156 3.046875 -7.046875 C 2.484375 -6.929688 2.0625 -6.78125 1.78125 -6.59375 C 1.5 -6.414062 1.359375 -6.328125 1.359375 -6.328125 C 1.359375 -6.328125 1.285156 -6.398438 1.140625 -6.546875 C 1.003906 -6.703125 0.921875 -6.941406 0.890625 -7.265625 C 0.847656 -7.765625 0.984375 -8.179688 1.296875 -8.515625 C 1.617188 -8.847656 2.085938 -9.039062 2.703125 -9.09375 C 2.992188 -9.125 3.296875 -9.128906 3.609375 -9.109375 L 4.96875 -14.484375 C 5.257812 -15.566406 5.625 -16.472656 6.0625 -17.203125 C 6.507812 -17.941406 7.109375 -18.507812 7.859375 -18.90625 C 8.617188 -19.3125 9.582031 -19.566406 10.75 -19.671875 C 11.75 -19.765625 12.382812 -19.601562 12.65625 -19.1875 C 12.9375 -18.78125 13.039062 -18.113281 12.96875 -17.1875 L 12.03125 -5.375 C 11.988281 -4.644531 12.09375 -4.125 12.34375 -3.8125 C 12.59375 -3.507812 12.925781 -3.378906 13.34375 -3.421875 C 13.75 -3.453125 14.113281 -3.617188 14.4375 -3.921875 C 14.757812 -4.222656 15.03125 -4.550781 15.25 -4.90625 C 15.46875 -5.269531 15.625 -5.570312 15.71875 -5.8125 C 16.082031 -5.84375 16.257812 -5.644531 16.25 -5.21875 C 16.226562 -4.707031 16.035156 -4.148438 15.671875 -3.546875 C 15.304688 -2.953125 14.8125 -2.421875 14.1875 -1.953125 C 13.570312 -1.484375 12.890625 -1.210938 12.140625 -1.140625 C 11.265625 -1.054688 10.523438 -1.265625 9.921875 -1.765625 C 9.316406 -2.265625 8.972656 -2.984375 8.890625 -3.921875 C 8.828125 -4.492188 8.800781 -5.046875 8.8125 -5.578125 C 8.820312 -6.109375 8.851562 -6.707031 8.90625 -7.375 Z M 5.09375 -9.03125 C 5.582031 -9.007812 6.132812 -8.988281 6.75 -8.96875 C 7.363281 -8.945312 8.125 -8.972656 9.03125 -9.046875 L 9.671875 -16.984375 C 9.710938 -17.367188 9.722656 -17.664062 9.703125 -17.875 C 9.691406 -18.09375 9.6875 -18.203125 9.6875 -18.203125 C 9.144531 -18.148438 8.660156 -17.953125 8.234375 -17.609375 C 7.816406 -17.265625 7.46875 -16.832031 7.1875 -16.3125 C 6.914062 -15.800781 6.707031 -15.253906 6.5625 -14.671875 Z M 5.09375 -9.03125 "/></g></g></g><g fill="#ffffff" fill-opacity="1"><g transform="translate(252.491313, 180.693958)"><g><path d="M 3.171875 -8.375 L 5.40625 -7.4375 C 6.351562 -7.070312 7.03125 -6.644531 7.4375 -6.15625 C 7.851562 -5.664062 8.09375 -5.085938 8.15625 -4.421875 C 8.21875 -3.773438 8.082031 -3.160156 7.75 -2.578125 C 7.425781 -1.992188 6.894531 -1.492188 6.15625 -1.078125 C 5.425781 -0.671875 4.457031 -0.414062 3.25 -0.3125 C 2.207031 -0.207031 1.335938 -0.273438 0.640625 -0.515625 C -0.046875 -0.765625 -0.566406 -1.097656 -0.921875 -1.515625 C -1.273438 -1.941406 -1.472656 -2.367188 -1.515625 -2.796875 C -1.554688 -3.273438 -1.421875 -3.65625 -1.109375 -3.9375 C -0.804688 -4.226562 -0.441406 -4.390625 -0.015625 -4.421875 C 0.421875 -4.460938 0.734375 -4.4375 0.921875 -4.34375 C 1.117188 -4.25 1.21875 -4.203125 1.21875 -4.203125 C 1.21875 -4.203125 1.203125 -4.132812 1.171875 -4 C 1.140625 -3.875 1.132812 -3.695312 1.15625 -3.46875 C 1.207031 -2.851562 1.410156 -2.367188 1.765625 -2.015625 C 2.128906 -1.671875 2.671875 -1.519531 3.390625 -1.5625 C 4.097656 -1.625 4.601562 -1.828125 4.90625 -2.171875 C 5.207031 -2.523438 5.335938 -2.90625 5.296875 -3.3125 C 5.273438 -3.613281 5.164062 -3.878906 4.96875 -4.109375 C 4.769531 -4.347656 4.4375 -4.5625 3.96875 -4.75 L 1.40625 -5.8125 C 0.789062 -6.070312 0.253906 -6.410156 -0.203125 -6.828125 C -0.671875 -7.253906 -0.941406 -7.878906 -1.015625 -8.703125 C -1.117188 -9.703125 -0.769531 -10.597656 0.03125 -11.390625 C 0.84375 -12.179688 2.128906 -12.65625 3.890625 -12.8125 C 4.898438 -12.914062 5.75 -12.84375 6.4375 -12.59375 C 7.132812 -12.351562 7.660156 -12.019531 8.015625 -11.59375 C 8.378906 -11.164062 8.582031 -10.738281 8.625 -10.3125 C 8.664062 -9.851562 8.535156 -9.476562 8.234375 -9.1875 C 7.941406 -8.894531 7.582031 -8.734375 7.15625 -8.703125 C 6.738281 -8.660156 6.425781 -8.6875 6.21875 -8.78125 C 6.019531 -8.875 5.921875 -8.921875 5.921875 -8.921875 C 5.921875 -8.921875 5.9375 -8.988281 5.96875 -9.125 C 6 -9.257812 6.003906 -9.429688 5.984375 -9.640625 C 5.929688 -10.210938 5.707031 -10.691406 5.3125 -11.078125 C 4.914062 -11.460938 4.378906 -11.625 3.703125 -11.5625 C 3.015625 -11.488281 2.515625 -11.28125 2.203125 -10.9375 C 1.898438 -10.601562 1.765625 -10.222656 1.796875 -9.796875 C 1.835938 -9.429688 1.96875 -9.144531 2.1875 -8.9375 C 2.414062 -8.726562 2.742188 -8.539062 3.171875 -8.375 Z M 3.171875 -8.375 "/></g></g></g><g fill="#ffffff" fill-opacity="1"><g transform="translate(263.738262, 179.635135)"><g><path d="M -1.3125 -12.328125 L -0.140625 -12.4375 L -0.015625 -13.796875 C 0.0546875 -14.578125 0.046875 -15.125 -0.046875 -15.4375 C -0.148438 -15.757812 -0.203125 -15.921875 -0.203125 -15.921875 C -0.203125 -15.921875 -0.109375 -15.960938 0.078125 -16.046875 C 0.273438 -16.128906 0.601562 -16.191406 1.0625 -16.234375 C 2.019531 -16.328125 2.617188 -16.195312 2.859375 -15.84375 C 3.109375 -15.488281 3.191406 -14.863281 3.109375 -13.96875 L 3.015625 -12.734375 L 5.453125 -12.96875 C 5.453125 -12.96875 5.484375 -12.925781 5.546875 -12.84375 C 5.609375 -12.757812 5.648438 -12.632812 5.671875 -12.46875 C 5.691406 -12.25 5.632812 -12.066406 5.5 -11.921875 C 5.375 -11.773438 5.171875 -11.691406 4.890625 -11.671875 L 2.90625 -11.484375 L 2.359375 -4.59375 C 2.304688 -3.90625 2.414062 -3.375 2.6875 -3 C 2.96875 -2.632812 3.394531 -2.476562 3.96875 -2.53125 C 4.675781 -2.59375 5.257812 -2.878906 5.71875 -3.390625 C 6.175781 -3.910156 6.507812 -4.4375 6.71875 -4.96875 C 6.882812 -4.976562 7.019531 -4.929688 7.125 -4.828125 C 7.226562 -4.734375 7.265625 -4.582031 7.234375 -4.375 C 7.160156 -3.863281 6.925781 -3.300781 6.53125 -2.6875 C 6.132812 -2.082031 5.617188 -1.546875 4.984375 -1.078125 C 4.359375 -0.609375 3.648438 -0.335938 2.859375 -0.265625 C 1.960938 -0.179688 1.164062 -0.40625 0.46875 -0.9375 C -0.21875 -1.46875 -0.609375 -2.226562 -0.703125 -3.21875 C -0.722656 -3.5 -0.738281 -3.851562 -0.75 -4.28125 C -0.757812 -4.71875 -0.738281 -5.25 -0.6875 -5.875 L -0.25 -11.1875 L -1.859375 -11.03125 C -1.859375 -11.03125 -1.890625 -11.070312 -1.953125 -11.15625 C -2.023438 -11.238281 -2.066406 -11.363281 -2.078125 -11.53125 C -2.097656 -11.75 -2.039062 -11.929688 -1.90625 -12.078125 C -1.769531 -12.222656 -1.570312 -12.304688 -1.3125 -12.328125 Z M -1.3125 -12.328125 "/></g></g></g><g fill="#ffffff" fill-opacity="1"><g transform="translate(271.088243, 178.943186)"><g><path d="M 4.84375 -0.453125 C 3.769531 -0.347656 2.785156 -0.46875 1.890625 -0.8125 C 1.003906 -1.164062 0.285156 -1.71875 -0.265625 -2.46875 C -0.816406 -3.226562 -1.144531 -4.160156 -1.25 -5.265625 C -1.351562 -6.347656 -1.253906 -7.335938 -0.953125 -8.234375 C -0.660156 -9.140625 -0.226562 -9.925781 0.34375 -10.59375 C 0.914062 -11.257812 1.582031 -11.789062 2.34375 -12.1875 C 3.101562 -12.582031 3.890625 -12.816406 4.703125 -12.890625 C 5.546875 -12.972656 6.238281 -12.910156 6.78125 -12.703125 C 7.320312 -12.492188 7.726562 -12.207031 8 -11.84375 C 8.269531 -11.476562 8.425781 -11.082031 8.46875 -10.65625 C 8.570312 -9.539062 8.046875 -8.546875 6.890625 -7.671875 C 5.742188 -6.804688 4.109375 -6.070312 1.984375 -5.46875 C 2.148438 -4.550781 2.566406 -3.800781 3.234375 -3.21875 C 3.898438 -2.644531 4.753906 -2.40625 5.796875 -2.5 C 6.691406 -2.582031 7.441406 -2.78125 8.046875 -3.09375 C 8.660156 -3.40625 9.160156 -3.757812 9.546875 -4.15625 C 9.929688 -4.5625 10.21875 -4.945312 10.40625 -5.3125 C 10.769531 -5.34375 10.921875 -5.140625 10.859375 -4.703125 C 10.828125 -4.429688 10.671875 -4.070312 10.390625 -3.625 C 10.109375 -3.1875 9.71875 -2.738281 9.21875 -2.28125 C 8.71875 -1.832031 8.09375 -1.4375 7.34375 -1.09375 C 6.601562 -0.757812 5.769531 -0.546875 4.84375 -0.453125 Z M 4.84375 -11.671875 C 4.394531 -11.617188 3.9375 -11.390625 3.46875 -10.984375 C 3 -10.585938 2.617188 -10.023438 2.328125 -9.296875 C 2.035156 -8.566406 1.882812 -7.675781 1.875 -6.625 C 3.363281 -7.132812 4.410156 -7.765625 5.015625 -8.515625 C 5.617188 -9.273438 5.878906 -10.0625 5.796875 -10.875 C 5.773438 -11.144531 5.675781 -11.347656 5.5 -11.484375 C 5.320312 -11.628906 5.101562 -11.691406 4.84375 -11.671875 Z M 4.84375 -11.671875 "/></g></g></g><g fill="#ffffff" fill-opacity="1"><g transform="translate(282.211866, 177.895973)"><g><path d="M 2.890625 -10.25 L 2.796875 -9.15625 C 3.460938 -10.5625 4.15625 -11.554688 4.875 -12.140625 C 5.601562 -12.722656 6.25 -13.039062 6.8125 -13.09375 C 7.414062 -13.15625 7.910156 -13.035156 8.296875 -12.734375 C 8.679688 -12.441406 8.898438 -11.976562 8.953125 -11.34375 C 9.015625 -10.65625 8.878906 -10.070312 8.546875 -9.59375 C 8.222656 -9.113281 7.757812 -8.847656 7.15625 -8.796875 C 6.832031 -8.765625 6.5625 -8.765625 6.34375 -8.796875 C 6.125 -8.828125 6.015625 -8.84375 6.015625 -8.84375 C 6.015625 -8.84375 6.054688 -8.96875 6.140625 -9.21875 C 6.222656 -9.46875 6.25 -9.757812 6.21875 -10.09375 C 6.1875 -10.457031 5.992188 -10.625 5.640625 -10.59375 C 5.441406 -10.570312 5.210938 -10.445312 4.953125 -10.21875 C 4.691406 -10 4.390625 -9.582031 4.046875 -8.96875 C 3.773438 -8.507812 3.519531 -8 3.28125 -7.4375 C 3.050781 -6.875 2.847656 -6.195312 2.671875 -5.40625 C 2.492188 -4.613281 2.363281 -3.617188 2.28125 -2.421875 C 2.226562 -1.691406 2.242188 -1.179688 2.328125 -0.890625 C 2.421875 -0.597656 2.46875 -0.453125 2.46875 -0.453125 C 2.46875 -0.453125 2.367188 -0.40625 2.171875 -0.3125 C 1.984375 -0.21875 1.664062 -0.148438 1.21875 -0.109375 C 0.257812 -0.0234375 -0.335938 -0.164062 -0.578125 -0.53125 C -0.828125 -0.90625 -0.921875 -1.519531 -0.859375 -2.375 L -0.25 -10.046875 C -0.1875 -10.835938 -0.195312 -11.390625 -0.28125 -11.703125 C -0.375 -12.023438 -0.421875 -12.1875 -0.421875 -12.1875 C -0.421875 -12.1875 -0.320312 -12.234375 -0.125 -12.328125 C 0.0625 -12.421875 0.378906 -12.488281 0.828125 -12.53125 C 1.785156 -12.625 2.382812 -12.472656 2.625 -12.078125 C 2.875 -11.691406 2.960938 -11.082031 2.890625 -10.25 Z M 2.890625 -10.25 "/></g></g></g></svg>